<svg width="553" height="659" viewBox="0 0 553 659" fill="none" xmlns="http://www.w3.org/2000/svg">
<path d="M537.359 174.229L536.645 479.99L269.279 643.99L269.351 339.332L537.359 174.229Z" stroke="black" stroke-width="30" stroke-miterlimit="10" stroke-linecap="round" stroke-linejoin="round"/>
<path d="M269.271 643.999L15.785 489.595L15 182.5L269.342 339.341L269.271 643.999Z" stroke="black" stroke-width="30" stroke-miterlimit="10" stroke-linejoin="round"/>
<path d="M269.342 339.344L15 182.503L282.116 15L537.351 174.24L269.342 339.344Z" stroke="black" stroke-width="30" stroke-miterlimit="10" stroke-linecap="round" stroke-linejoin="round"/>
<path d="M403.11 92.3008L137.457 257.9" stroke="black" stroke-width="30" stroke-miterlimit="10"/>
<path d="M451.848 323.796L451.741 328.763C451.527 338.451 446.924 347.277 439.609 352.079L389.654 384.795C381.662 390.05 371.742 383.359 371.742 372.809V368.827C371.742 359.879 375.881 351.628 382.589 347.071L434.4 311.974C442.25 306.679 452.098 313.329 451.848 323.796Z" stroke="black" stroke-width="30" stroke-miterlimit="10" stroke-linecap="round" stroke-linejoin="round"/>
</svg>
